<svg width="210" height="60" viewBox="0 0 210 60" xmlns="http://www.w3.org/2000/svg">
  <defs>
    <linearGradient id="icon-gradient" x1="0%" y1="0%" x2="100%" y2="0%">
      <stop offset="0%" style="stop-color:#a8e063;" />
      <stop offset="100%" style="stop-color:#ff6b6b;" />
    </linearGradient>
  </defs>
  <style>
    .logo-text { 
      font-family: -apple-system, BlinkMacSystemFont, "Segoe UI", Roboto, "Helvetica Neue", Arial, sans-serif;
      font-size: 48px;
      font-weight: bold;
      fill: #404040;
    }
  </style>
  <text x="0" y="50" class="logo-text">fsGaze</text>
  <g transform="translate(88, 0)">
    <path d="M11.6,3.2h-1c-4,0-7.2,3.2-7.2,7.2v1c0,4,3.2,7.2,7.2,7.2h1c4,0,7.2-3.2,7.2-7.2v-1C18.8,6.4,15.6,3.2,11.6,3.2z M35.2,3.2h-1c-4,0-7.2,3.2-7.2,7.2v1c0,4,3.2,7.2,7.2,7.2h1c4,0,7.2-3.2,7.2-7.2v-1C42.4,6.4,39.2,3.2,35.2,3.2z" fill="url(#icon-gradient)"/>
  </g>
</svg> 