<svg width="84" height="30" viewBox="0 0 84 30" fill="none" xmlns="http://www.w3.org/2000/svg">
<path d="M8.51365 28.9473L5.26664 28.9675L5.17651 14.5391C5.17031 13.5463 5.35634 12.711 5.7346 12.0331C6.11281 11.3472 6.65482 10.827 7.36063 10.4727C8.06643 10.1183 8.89947 9.93814 9.85974 9.93214C10.1771 9.93016 10.4783 9.94862 10.7634 9.98753C11.0566 10.0264 11.3459 10.0815 11.6312 10.153L11.5855 12.607C11.4306 12.5672 11.2595 12.5398 11.0722 12.5247C10.8931 12.5096 10.6937 12.5027 10.474 12.504C10.0345 12.5068 9.66066 12.5864 9.35239 12.743C9.04411 12.8995 8.80954 13.1289 8.64866 13.431C8.49587 13.7249 8.42082 14.0875 8.42352 14.5188L8.51365 28.9473ZM11.1044 15.7228L11.1189 18.0421L3.20892 18.0915L3.19443 15.7722L11.1044 15.7228ZM20.4171 25.2596C20.4154 24.9829 20.3406 24.7351 20.1927 24.5163C20.0449 24.2975 19.767 24.0999 19.3589 23.9234C18.959 23.7387 18.372 23.5674 17.5979 23.4095C16.9134 23.2672 16.2816 23.0881 15.7024 22.872C15.1232 22.6559 14.6252 22.3945 14.2082 22.0878C13.7912 21.773 13.4634 21.4048 13.2247 20.9831C12.9942 20.5532 12.8771 20.0575 12.8736 19.496C12.8702 18.9508 12.985 18.4374 13.218 17.9558C13.451 17.466 13.7901 17.0366 14.2354 16.6676C14.6806 16.2905 15.224 15.9941 15.8656 15.7785C16.5071 15.5548 17.2307 15.4404 18.0364 15.4354C19.1594 15.4284 20.1249 15.6054 20.9328 15.9666C21.7489 16.3277 22.3746 16.8284 22.8099 17.4686C23.2452 18.1006 23.4653 18.8154 23.4703 19.6129L20.2477 19.6331C20.2455 19.2831 20.1621 18.9663 19.9976 18.6825C19.8412 18.3986 19.5997 18.1722 19.2731 18.0034C18.9465 17.8264 18.535 17.7394 18.0386 17.7425C17.591 17.7453 17.213 17.8209 16.9047 17.9693C16.6045 18.1177 16.3779 18.3104 16.2247 18.5473C16.0716 18.7843 15.9959 19.0452 15.9977 19.33C15.999 19.5416 16.0409 19.7326 16.1233 19.903C16.2139 20.0652 16.3572 20.2148 16.5534 20.352C16.7496 20.4891 17.0148 20.6136 17.3492 20.7254C17.6917 20.8372 18.1115 20.9444 18.6085 21.0471C19.5944 21.2363 20.4546 21.4913 21.1891 21.8123C21.9316 22.125 22.512 22.5446 22.9303 23.071C23.3487 23.5973 23.5604 24.2715 23.5656 25.0934C23.5692 25.6793 23.4464 26.2172 23.1972 26.7071C22.9479 27.1888 22.5843 27.6102 22.1065 27.9712C21.6286 28.3323 21.0566 28.6166 20.3906 28.8242C19.7245 29.0237 18.9723 29.1261 18.1341 29.1313C16.9216 29.1389 15.8949 28.9296 15.054 28.5036C14.213 28.0694 13.5748 27.52 13.1393 26.8553C12.7038 26.1826 12.4838 25.4841 12.4793 24.7598L15.5676 24.7405C15.5952 25.2531 15.7361 25.6632 15.9903 25.9708C16.2445 26.2785 16.5633 26.5003 16.9466 26.6362C17.3381 26.764 17.7494 26.8265 18.1808 26.8238C18.669 26.8208 19.0796 26.7531 19.4124 26.6208C19.7452 26.4804 19.9963 26.2957 20.1658 26.0668C20.3352 25.8297 20.419 25.5607 20.4171 25.2596ZM40.0962 19.5579L40.1395 26.4792C39.8811 26.8144 39.4724 27.1791 38.9134 27.5733C38.3624 27.9673 37.6403 28.3096 36.7469 28.6C35.8535 28.8823 34.7557 29.0275 33.4537 29.0356C32.3225 29.0427 31.2878 28.862 30.3496 28.4935C29.4114 28.1168 28.6022 27.5644 27.9222 26.8362C27.2422 26.1081 26.7158 25.2161 26.343 24.1605C25.9702 23.1049 25.7795 21.8975 25.771 20.5385L25.7637 19.3667C25.7552 18.0076 25.9186 16.7981 26.2537 15.738C26.5971 14.6779 27.0879 13.7797 27.7262 13.0432C28.3727 12.3068 29.1463 11.7445 30.0473 11.3564C30.9563 10.9682 31.9723 10.7706 33.0954 10.7636C34.6009 10.7542 35.8394 10.9946 36.8109 11.485C37.7905 11.9753 38.5435 12.6542 39.0697 13.5217C39.596 14.3811 39.9277 15.3719 40.0649 16.4941L36.7935 16.5145C36.7001 15.8966 36.5177 15.3565 36.2462 14.8944C35.9747 14.424 35.59 14.0602 35.0919 13.8029C34.602 13.5374 33.9664 13.4071 33.1852 13.412C32.526 13.4161 31.9449 13.5499 31.442 13.8135C30.9391 14.0771 30.5183 14.4581 30.1796 14.9567C29.8409 15.4552 29.5843 16.0713 29.4099 16.8048C29.2436 17.5383 29.1634 18.377 29.1693 19.321L29.1767 20.5172C29.1827 21.4694 29.2856 22.3151 29.4856 23.0544C29.6854 23.7856 29.9701 24.4023 30.3394 24.9046C30.7169 25.3987 31.179 25.7742 31.7259 26.0312C32.2808 26.28 32.9082 26.4023 33.6081 26.3979C34.2428 26.3939 34.7674 26.3377 35.1818 26.2294C35.6042 26.1128 35.9411 25.9764 36.1924 25.8202C36.4437 25.664 36.6381 25.5122 36.7755 25.3649L36.7547 22.0324L33.2269 22.0545L33.2116 19.6009L40.0962 19.5579ZM50.341 25.8783L50.3029 19.7871C50.3002 19.3395 50.2204 18.9535 50.0638 18.6289C49.9071 18.3044 49.6695 18.0536 49.3511 17.8765C49.0326 17.6995 48.6292 17.6125 48.1409 17.6155C47.7096 17.6182 47.3316 17.6938 47.007 17.8423C46.6906 17.9908 46.4477 18.1998 46.2785 18.4695C46.1093 18.7309 46.0257 19.0326 46.0278 19.3744L42.793 19.3946C42.7896 18.8493 42.9166 18.3318 43.174 17.8419C43.4313 17.3438 43.7988 16.9021 44.2765 16.5166C44.7624 16.1229 45.3423 15.8141 46.0164 15.5902C46.6986 15.3662 47.4629 15.2515 48.3092 15.2463C49.3102 15.24 50.2023 15.4053 50.9857 15.7422C51.7772 16.071 52.3988 16.5717 52.8506 17.2443C53.3105 17.9169 53.5437 18.7659 53.5501 19.7912L53.5861 25.5529C53.5902 26.212 53.6344 26.7773 53.7188 27.2488C53.8112 27.7121 53.9439 28.1141 54.1169 28.4549L54.1182 28.6624L50.8346 28.6829C50.6779 28.3502 50.5573 27.9278 50.4727 27.4156C50.388 26.8953 50.3442 26.3829 50.341 25.8783ZM50.7599 20.6388L50.7963 22.5551L48.7578 22.5678C48.2532 22.571 47.8101 22.6266 47.4282 22.7348C47.0464 22.8349 46.734 22.9833 46.4911 23.1801C46.2481 23.3688 46.0664 23.5978 45.946 23.8671C45.8256 24.1283 45.7664 24.4257 45.7685 24.7594C45.7705 25.0849 45.8456 25.3774 45.9937 25.6369C46.1499 25.8963 46.371 26.1025 46.6568 26.2553C46.9506 26.4 47.2929 26.4711 47.6835 26.4686C48.2532 26.4651 48.7489 26.3481 49.1706 26.1176C49.5923 25.8789 49.9201 25.592 50.154 25.2569C50.3879 24.9218 50.5121 24.6036 50.5265 24.3024L51.4629 25.6882C51.351 26.0226 51.1824 26.3776 50.9568 26.7534C50.7313 27.1291 50.4405 27.4809 50.0845 27.8087C49.7285 28.1364 49.2988 28.4077 48.7956 28.6224C48.2924 28.8371 47.7071 28.9466 47.0398 28.9507C46.1853 28.9561 45.4193 28.79 44.7417 28.4524C44.0642 28.1148 43.5282 27.6502 43.1339 27.0586C42.7395 26.467 42.54 25.7928 42.5353 25.0359C42.5309 24.3361 42.6573 23.7168 42.9143 23.1781C43.1714 22.6393 43.5551 22.1853 44.0655 21.8159C44.5758 21.4383 45.2088 21.1536 45.9645 20.9617C46.7282 20.7616 47.6024 20.6585 48.5871 20.6523L50.7599 20.6388ZM66.8463 26.0438L66.8621 28.5828L56.9258 28.6448L56.9099 26.1058L66.8463 26.0438ZM66.5597 17.3051L58.1343 28.6373L56.0103 28.6506L55.9979 26.6609L64.3749 15.39L66.5477 15.3765L66.5597 17.3051ZM65.3636 15.3839L65.3796 17.9351L56.1146 17.993L56.0987 15.4417L65.3636 15.3839ZM74.8957 28.7767C73.8948 28.783 72.9945 28.6258 72.195 28.3053C71.3954 27.9848 70.7131 27.5374 70.148 26.9631C69.5909 26.3806 69.1595 25.7038 68.8535 24.9326C68.5557 24.1532 68.404 23.3159 68.3984 22.4207L68.3953 21.9324C68.389 20.9152 68.5297 19.9906 68.8175 19.1588C69.1052 18.3187 69.5157 17.5959 70.049 16.9904C70.5824 16.3848 71.2224 15.9169 71.969 15.5868C72.7157 15.2566 73.5407 15.0886 74.444 15.083C75.3798 15.0772 76.2068 15.2307 76.9249 15.5436C77.643 15.8484 78.2439 16.2841 78.7275 16.8507C79.2112 17.4174 79.5776 18.0987 79.8268 18.8947C80.0758 19.6825 80.2034 20.5566 80.2094 21.5168L80.2178 22.8718L69.8665 22.9365L69.8526 20.7148L77.0302 20.67L77.0287 20.4258C77.0092 19.9133 76.9086 19.4459 76.7269 19.0239C76.5452 18.5937 76.2664 18.2536 75.8905 18.0037C75.5145 17.7456 75.0295 17.6185 74.4354 17.6222C73.9553 17.6252 73.5368 17.7336 73.1801 17.9474C72.8314 18.153 72.5403 18.4478 72.3067 18.8318C72.0812 19.2075 71.9131 19.6562 71.8024 20.1777C71.6917 20.6993 71.6384 21.2774 71.6423 21.9122L71.6454 22.4004C71.6488 22.9538 71.7253 23.466 71.8747 23.9371C72.0323 24.4081 72.2586 24.8177 72.5538 25.1658C72.857 25.5057 73.2168 25.772 73.633 25.9647C74.0573 26.1493 74.5381 26.2399 75.0752 26.2365C75.7506 26.2323 76.3601 26.0983 76.9037 25.8344C77.4554 25.5624 77.9331 25.1648 78.3367 24.6414L79.9708 26.3158C79.6966 26.7244 79.3247 27.1174 78.8551 27.4947C78.3936 27.8719 77.8339 28.1806 77.1763 28.4207C76.5185 28.6527 75.7583 28.7713 74.8957 28.7767Z" fill="#575151"/>
<rect x="65.2637" y="1.60413" width="15.1685" height="9.39461" rx="4.6973" transform="rotate(-0.357911 65.2637 1.60413)" stroke="url(#paint0_linear_107_44)" stroke-width="3"/>
<rect x="43.5093" y="1.60413" width="15.1685" height="9.39461" rx="4.6973" transform="rotate(-0.357911 43.5093 1.60413)" stroke="url(#paint1_linear_107_44)" stroke-width="3"/>
<rect x="59.5438" y="5.02576" width="4.91228" height="2.10526" rx="1" fill="url(#paint2_linear_107_44)"/>
<defs>
<linearGradient id="paint0_linear_107_44" x1="72.8387" y1="0.113525" x2="72.8387" y2="12.5081" gradientUnits="userSpaceOnUse">
<stop stop-color="#9DF188"/>
<stop offset="1" stop-color="#E25849"/>
</linearGradient>
<linearGradient id="paint1_linear_107_44" x1="51.0843" y1="0.113525" x2="51.0843" y2="12.5081" gradientUnits="userSpaceOnUse">
<stop stop-color="#9DF188"/>
<stop offset="1" stop-color="#E25849"/>
</linearGradient>
<linearGradient id="paint2_linear_107_44" x1="62" y1="1.86786" x2="62" y2="10.6398" gradientUnits="userSpaceOnUse">
<stop stop-color="#9DF188"/>
<stop offset="1" stop-color="#E25849"/>
</linearGradient>
</defs>
</svg>
